<mxfile host="app.diagrams.net" modified="2023-08-29T11:44:47.372Z" agent="Mozilla/5.0 (Windows NT 10.0; Win64; x64) AppleWebKit/537.36 (KHTML, like Gecko) Chrome/116.0.0.0 Safari/537.36" etag="JSkxeX5V3V64aesw9EWD" version="21.6.9" type="device">
  <diagram name="Página-1" id="DRrHG2juIGa46x9zGOgX">
    <mxGraphModel dx="1434" dy="790" grid="1" gridSize="10" guides="1" tooltips="1" connect="1" arrows="1" fold="1" page="1" pageScale="1" pageWidth="827" pageHeight="1169" math="0" shadow="0">
      <root>
        <mxCell id="0" />
        <mxCell id="1" parent="0" />
        <mxCell id="-DZ25kzNdkWXa7YOZSAK-1" value="Classe de Raposa" style="swimlane;fontStyle=1;align=center;verticalAlign=top;childLayout=stackLayout;horizontal=1;startSize=26;horizontalStack=0;resizeParent=1;resizeParentMax=0;resizeLast=0;collapsible=1;marginBottom=0;whiteSpace=wrap;html=1;" parent="1" vertex="1">
          <mxGeometry x="310" y="310" width="230" height="260" as="geometry" />
        </mxCell>
        <mxCell id="-DZ25kzNdkWXa7YOZSAK-2" value="+Pelagem: string&lt;br&gt;+Tamanho: float&lt;br&gt;+Localização: tipo de cauda: string&lt;br&gt;+Dieta: string&lt;br&gt;+Cor dos olhos: string&lt;br&gt;+Orelhas: string&lt;br&gt;+Expectativa: int&lt;br&gt;+Peso: string&lt;br&gt;+Espécie: string&amp;nbsp;" style="text;strokeColor=none;fillColor=none;align=left;verticalAlign=top;spacingLeft=4;spacingRight=4;overflow=hidden;rotatable=0;points=[[0,0.5],[1,0.5]];portConstraint=eastwest;whiteSpace=wrap;html=1;" parent="-DZ25kzNdkWXa7YOZSAK-1" vertex="1">
          <mxGeometry y="26" width="230" height="144" as="geometry" />
        </mxCell>
        <mxCell id="-DZ25kzNdkWXa7YOZSAK-3" value="" style="line;strokeWidth=1;fillColor=none;align=left;verticalAlign=middle;spacingTop=-1;spacingLeft=3;spacingRight=3;rotatable=0;labelPosition=right;points=[];portConstraint=eastwest;strokeColor=inherit;" parent="-DZ25kzNdkWXa7YOZSAK-1" vertex="1">
          <mxGeometry y="170" width="230" height="8" as="geometry" />
        </mxCell>
        <mxCell id="-DZ25kzNdkWXa7YOZSAK-4" value="+Comer(): void&lt;br&gt;+Dormir(): void&lt;br&gt;+Procriar(): void&lt;br&gt;+Correr(): void&lt;br&gt;+FazerSom(): void" style="text;strokeColor=none;fillColor=none;align=left;verticalAlign=top;spacingLeft=4;spacingRight=4;overflow=hidden;rotatable=0;points=[[0,0.5],[1,0.5]];portConstraint=eastwest;whiteSpace=wrap;html=1;" parent="-DZ25kzNdkWXa7YOZSAK-1" vertex="1">
          <mxGeometry y="178" width="230" height="82" as="geometry" />
        </mxCell>
      </root>
    </mxGraphModel>
  </diagram>
</mxfile>
